<?xml version="1.0" encoding="UTF-8" standalone="no"?>
<!DOCTYPE svg PUBLIC "-//W3C//DTD SVG 1.1//EN" "http://www.w3.org/Graphics/SVG/1.1/DTD/svg11.dtd">
<svg width="100%" height="100%" viewBox="0 0 22 24" version="1.1" xmlns="http://www.w3.org/2000/svg" xmlns:xlink="http://www.w3.org/1999/xlink" xml:space="preserve" xmlns:serif="http://www.serif.com/" style="fill-rule:evenodd;clip-rule:evenodd;stroke-linejoin:round;stroke-miterlimit:2;">
    <rect id="Artboard1" x="0" y="0" width="21.25" height="24" style="fill:none;"/>
    <clipPath id="_clip1">
        <rect x="0" y="0" width="21.25" height="24"/>
    </clipPath>
    <g clip-path="url(#_clip1)">
        <g id="pdf-blank" serif:id="pdf blank">
            <path d="M18.264,5.414l-0,7.045l-11.076,0c-1.297,0 -2.351,1.054 -2.351,2.351l0,9.19l-2.097,-0c-1.512,-0 -2.74,-1.228 -2.74,-2.74l0,-18.52c0,-1.512 1.228,-2.74 2.74,-2.74l9.808,-0l0,4.484c0,0.513 0.417,0.93 0.931,0.93l4.785,-0Z"/>
            <path d="M6.479,23.25l1.106,-0l-0,-2.99l1.287,0c1.046,-0.028 1.046,-0.028 1.279,-0.153c0.666,-0.32 0.933,-1.168 0.933,-2.892c0,-1.127 -0.069,-1.725 -0.259,-2.239c-0.216,-0.57 -0.613,-0.918 -1.123,-0.973c-0.216,-0.028 -0.277,-0.028 -0.89,-0.028l-2.333,-0l-0,9.275Zm1.106,-4.519l-0,-3.282l1.357,-0c0.466,-0 0.57,0.028 0.725,0.139c0.225,0.194 0.294,0.57 0.294,1.599c0,1.335 -0.155,1.544 -1.132,1.544l-1.244,-0Z" style="fill-rule:nonzero;"/>
            <path d="M11.655,23.25l2.877,-0c1.002,-0 1.581,-0.459 1.901,-1.474c0.19,-0.654 0.242,-1.418 0.242,-3.922c-0,-1.613 -0.138,-2.405 -0.553,-3.087c-0.328,-0.542 -0.83,-0.792 -1.624,-0.792l-2.843,-0l-0,9.275Zm1.106,-1.53l-0,-6.202l1.624,0c0.51,0 0.778,0.153 0.942,0.529c0.181,0.403 0.225,0.931 0.225,2.544c-0,1.586 -0.052,2.142 -0.242,2.573c-0.173,0.389 -0.467,0.556 -0.994,0.556l-1.555,0Z" style="fill-rule:nonzero;"/>
            <path d="M18.576,15.449l2.704,-0l0,-1.474l-3.81,-0l-0,9.275l1.106,-0l-0,-3.81l2.566,-0l0,-1.474l-2.566,-0l-0,-2.517Z" style="fill-rule:nonzero;"/>
            <path d="M18.264,4.5l-4.764,-0l-0,-4.5l4.764,4.5Z"/>
        </g>
    </g>
</svg>
