<?xml version="1.0" encoding="UTF-8" standalone="no"?>
<!DOCTYPE svg PUBLIC "-//W3C//DTD SVG 1.1//EN" "http://www.w3.org/Graphics/SVG/1.1/DTD/svg11.dtd">
<svg width="100%" height="100%" viewBox="0 0 19 24" version="1.1" xmlns="http://www.w3.org/2000/svg" xmlns:xlink="http://www.w3.org/1999/xlink" xml:space="preserve" xmlns:serif="http://www.serif.com/" style="fill-rule:evenodd;clip-rule:evenodd;stroke-linejoin:round;stroke-miterlimit:2;">
    <g id="ifu-base">
        <path d="M18.264,5.414l-0,15.846c-0,1.512 -1.228,2.74 -2.74,2.74l-12.784,-0c-1.512,-0 -2.74,-1.228 -2.74,-2.74l0,-18.52c0,-1.512 1.228,-2.74 2.74,-2.74l9.808,0l0,4.484c0,0.513 0.417,0.93 0.931,0.93l4.785,-0Zm-4.403,1.879l0,4.113c0,0.95 -0.16,1.079 -1.317,1.079c-1.157,0 -1.335,-0.138 -1.335,-1.033l0,-4.159l-1.138,-0l-0,4.159c-0,1.116 0.204,1.559 0.845,1.845c0.347,0.157 0.747,0.203 1.619,0.203c0.685,-0 1.148,-0.037 1.379,-0.111c0.339,-0.101 0.597,-0.286 0.775,-0.525c0.222,-0.305 0.311,-0.72 0.311,-1.476l-0,-4.095l-1.139,-0Zm-9.458,-0l-1.139,-0l-0,6.152l1.139,-0l-0,-6.152Zm11.229,10.207c-0,-0.552 -0.448,-1 -1,-1l-11,0c-0.552,0 -1,0.448 -1,1c-0,0.552 0.448,1 1,1l11,0c0.552,0 1,-0.448 1,-1Zm-0,3.875c-0,-0.552 -0.448,-1 -1,-1l-11,0c-0.552,0 -1,0.448 -1,1c-0,0.552 0.448,1 1,1l11,0c0.552,0 1,-0.448 1,-1Zm-9.041,-13.105l2.785,0l0,-0.977l-3.924,-0l0,6.152l1.139,-0l0,-2.528l2.643,0l0,-0.977l-2.643,-0l0,-1.67Z"/>
        <path d="M18.264,4.5l-4.764,-0l-0,-4.5l4.764,4.5Z"/>
    </g>
</svg>
